<svg xmlns="http://www.w3.org/2000/svg" viewBox="0 0 64 64" role="img" aria-label="Buelon ghost cow favicon">
  <defs>
    <linearGradient id="sheet" x1="18" y1="10" x2="46" y2="58" gradientUnits="userSpaceOnUse">
      <stop offset="0" stop-color="#ffffff"/>
      <stop offset="1" stop-color="#f4f7fb"/>
    </linearGradient>
    <linearGradient id="muzzle" x1="22" y1="34" x2="42" y2="50" gradientUnits="userSpaceOnUse">
      <stop offset="0" stop-color="#ffad93"/>
      <stop offset="1" stop-color="#ff967d"/>
    </linearGradient>
  </defs>

  <!-- horns -->
  <path d="M22.3 15.2c-2.6-3.8-2.5-7.4-.7-8.5 2.1-1.3 4 2 4.7 6.1" fill="#ffc982" stroke="#082046" stroke-width="2.4" stroke-linecap="round" stroke-linejoin="round"/>
  <path d="M41.7 15.2c2.6-3.8 2.5-7.4.7-8.5-2.1-1.3-4 2-4.7 6.1" fill="#ffc982" stroke="#082046" stroke-width="2.4" stroke-linecap="round" stroke-linejoin="round"/>

  <!-- ears -->
  <path d="M17.6 21.2c-4.8-3.5-8.1-2.9-9.7-.8 1.2 5.6 5.5 6.4 10.2 4.1" fill="#122b4e" stroke="#082046" stroke-width="2.4" stroke-linejoin="round"/>
  <path d="M12.1 21c2.2-.4 4.3.2 6.3 1.6-2.3 1.4-4.6 1.5-6.3-1.6Z" fill="#ff9a85"/>
  <path d="M46.4 21.2c4.8-3.5 8.1-2.9 9.7-.8-1.2 5.6-5.5 6.4-10.2 4.1" fill="#122b4e" stroke="#082046" stroke-width="2.4" stroke-linejoin="round"/>
  <path d="M51.9 21c-2.2-.4-4.3.2-6.3 1.6 2.3 1.4 4.6 1.5 6.3-1.6Z" fill="#ff9a85"/>

  <!-- ghost sheet/body -->
  <path d="M14.4 53.3c2.5-7.4 1.1-21.1 3-30.3 1.4-6.9 7.2-11.6 14.6-11.6s13.2 4.7 14.6 11.6c1.9 9.2.5 22.9 3 30.3-2.9.8-5.2-.2-6.9-2.2-1.6 2.8-5.4 3.1-7.6.6-2.2 2.5-5.8 2.5-8 0-2.2 2.5-6 2.2-7.6-.6-1.7 2-4 3-6.9 2.2Z" fill="url(#sheet)" stroke="#082046" stroke-width="2.8" stroke-linejoin="round"/>

  <!-- ghost eye marks on sheet -->
  <ellipse cx="26.5" cy="18.6" rx="2.4" ry="3.4" fill="#071c3d" transform="rotate(16 26.5 18.6)"/>
  <ellipse cx="37.5" cy="18.6" rx="2.4" ry="3.4" fill="#071c3d" transform="rotate(-16 37.5 18.6)"/>

  <!-- face opening -->
  <path d="M19.4 31.5c0-7.2 5.6-11.1 12.6-11.1s12.6 3.9 12.6 11.1S39 44.2 32 44.2 19.4 38.7 19.4 31.5Z" fill="#ffffff" stroke="#082046" stroke-width="2.4"/>
  <path d="M33.8 20.6c5.9.7 10.8 4.4 10.8 11 0 1.7-.3 3.2-.9 4.7-1.8-.5-4.5-1.8-6.5-4.3-2.2-2.9-3-7.6-3.4-11.4Z" fill="#102846"/>

  <!-- muzzle -->
  <path d="M20.7 34.5c1.5-4 5.6-6.3 11.3-6.3s9.8 2.3 11.3 6.3c-.6 5.5-5.3 9.7-11.3 9.7s-10.7-4.2-11.3-9.7Z" fill="url(#muzzle)"/>

  <!-- eyes / wink -->
  <ellipse cx="25.2" cy="30.4" rx="2.1" ry="2.9" fill="#071c3d"/>
  <circle cx="25.9" cy="29.1" r=".75" fill="#ffffff"/>
  <path d="M38.3 29.9c1.5-1.5 3.3-1.4 4.5.2" fill="none" stroke="#ffffff" stroke-width="2.1" stroke-linecap="round"/>

  <!-- nostrils and smile -->
  <circle cx="27.2" cy="35.7" r="1.3" fill="#071c3d"/>
  <circle cx="36.8" cy="35.7" r="1.3" fill="#071c3d"/>
  <path d="M28.8 39.4c2 2 4.5 2 6.7-.2" fill="none" stroke="#071c3d" stroke-width="2.4" stroke-linecap="round"/>

  <!-- subtle folds -->
  <path d="M20.1 37.3c-.7 5-1.5 8.1-3.3 11.3M43.9 37.3c.7 5 1.5 8.1 3.3 11.3" fill="none" stroke="#d8e0ea" stroke-width="1.6" stroke-linecap="round"/>
</svg>
